<?xml version="1.0" encoding="utf-8"?>
<!-- Generator: Adobe Illustrator 18.0.0, SVG Export Plug-In . SVG Version: 6.00 Build 0)  -->
<!DOCTYPE svg PUBLIC "-//W3C//DTD SVG 1.0//EN" "http://www.w3.org/TR/2001/REC-SVG-20010904/DTD/svg10.dtd">
<svg version="1.0" id="Isolation_Mode" xmlns="http://www.w3.org/2000/svg" xmlns:xlink="http://www.w3.org/1999/xlink" x="0px"
	 y="0px" width="115.4px" height="100px" viewBox="0 0 115.4 100" enable-background="new 0 0 115.4 100" xml:space="preserve">
<path fill="#231F20" d="M57.6,0C35.9,0,18.3,17.6,18.3,39.3c0,21.7,17.6,39.3,39.3,39.3c21.7,0,39.3-17.6,39.3-39.3
	C96.9,17.6,79.3,0,57.6,0 M88.3,17.4c-2,1.4-4.1,2.6-6.3,3.7c-1.3-2.6-2.9-5.1-4.7-7.3c1.6-1,3.2-2.1,4.6-3.3
	C84.3,12.5,86.4,14.8,88.3,17.4 M71.7,4.3c3.1,1.3,6.1,3,8.8,5.1c-1.4,1.1-2.8,2.1-4.3,3.1c-1.9-2.2-4.1-4.2-6.5-6
	C70.5,5.8,71.1,5.1,71.7,4.3 M74.8,13.3c-2.1,1.1-4.3,2.1-6.6,2.8c-1-2.2-2.1-4.3-3.3-6.4c1.3-0.6,2.5-1.3,3.6-2.1
	C70.8,9.2,72.9,11.1,74.8,13.3 M70.1,3.7C69.6,4.4,69,5,68.4,5.5c-2.1-1.4-4.3-2.6-6.6-3.6C64.7,2.2,67.5,2.8,70.1,3.7 M67,6.5
	c-0.9,0.7-2,1.2-3,1.7c-1.1-1.8-2.4-3.6-3.8-5.3C62.6,3.9,64.9,5.1,67,6.5 M58.4,3.2c1.4,1.7,2.8,3.6,4.1,5.6
	c-1.3,0.4-2.7,0.6-4.1,0.7V3.2z M58.4,11.1c1.7-0.1,3.3-0.4,4.9-0.9c1.2,2,2.3,4.1,3.2,6.3c-2.7,0.7-5.4,1.1-8.2,1.1V11.1z
	 M56.8,3.3v6.2c-1.4-0.1-2.7-0.3-4-0.7C54,6.9,55.3,5.1,56.8,3.3 M51.2,8.2c-1.1-0.5-2.1-1-3-1.7C50.3,5.1,52.6,3.9,55,3
	C53.6,4.6,52.4,6.4,51.2,8.2 M53.5,1.8c-2.3,1-4.6,2.2-6.6,3.7c-0.6-0.6-1.2-1.2-1.7-1.8C47.8,2.8,50.6,2.2,53.5,1.8 M80.4,69.3
	c-5.2-2.9-5.3-6.8-5.1-8.3c0.3-1.5,1.3-0.8,2-0.8c3.4,0,7.1-1,11.5-5.6c5-5.1,6.6-16.5-1.1-23.9c-8.3-8-17.2-6.6-22.9,0.6
	c-1.2,1.5-4,2.6-6.5,2.5c-3.7-0.1-1.4,2.7-1.4,3.3c0,0.6-0.6,1-0.9,0.9c-1.2-0.4-0.7,1.5-0.7,2c0,0.6-0.5,0.8-0.8,0.8
	c-1.5,0-1.1,1.4-1.1,1.8c0,0.4-0.1,1-0.6,1.3c-0.5,0.3-1.1,1.5-1.1,2.4c0,1.7,1.5,2.8,4.1,4.7c2.5,1.9,2.9,3.7,2.9,5
	c0.1,1.3,0.2,3.4,0.8,4.8c0.7,1.7,0.6,4.7-2.9,4.9c-4.3,0.2-12,3.6-12.6,3.9c-2.4,0.9-5.6,1.2-8.2,0.6c-1.4-1-2.6-2-3.9-3.1
	c-0.5-1.7,0.4-3.6,1.3-4.9c1.4,1.4,3.6,1.3,4.8,1.4c1.2,0,7.1-0.9,7.9-1.2c0.8-0.3,1.2-0.2,1.7,0c2.3,0.8,5.3,1.1,6.6-3.2
	c1.3-4.3-1.7-3.1-2.1-2.9c-0.4,0.2-0.9,0.1-0.7-0.2c0.5-1.1-0.3-1-0.7-1c-1.2-0.1-2.8,1.2-3.3,1.6c-0.5,0.5-1,0.4-1.2,0.3
	c-1.6-0.8-6.4,0.4-7.8-2.2c0.1-0.7-1.2-11.2-1.9-13c-0.1-0.4-0.3-1,0.2-1.7c1.2-1.8,4.6,0.1,6.4,0.1c2.2-0.1,2.5-1,3.1-1.7
	c0.6-0.7,1-0.3,1.3-0.5c0.4-0.3,0-0.8,0.2-1c0.1-0.3,0.3-0.1,0.7-0.5c0.4-0.3,0-1,0.1-1.3c0.5-0.8,2-0.2,1.1-2.3
	c-0.5-1.2,0.2-2.4,0.8-3.3c1.1-1.4,5.1-7.1-2-13c-6.8-5.7-13.7-5.2-18.2-0.4c-4.5,4.8-2.2,11.9-1.8,13.7c0.5,1.9-0.9,3.5-2.4,4.3
	c-1.2,0.6-4,2.4-6.1,4.3C20.2,23.3,29.4,10,43.5,4.3c0.6,0.8,1.3,1.5,2,2.1c-1.6,1.1-5,4.2-5,4.2s0.5,0.1,0.9,0.2
	c0.3,0.1,0.9,0.3,0.9,0.3s3-2.6,4.4-3.6c1.1,0.8,2.3,1.5,3.6,2.1C49.7,10.8,48,14,48,14s0.4,0.2,0.8,0.5c0.4,0.2,0.6,0.4,0.6,0.4
	s1.9-3.5,2.6-4.7c1.6,0.5,3.2,0.8,4.9,0.9v6.5c-0.9,0-3.3-0.1-4.3-0.2l-0.6-0.1l0.3,0.5c0.3,0.4,0.4,0.7,0.6,1.1l0.1,0.1l0.2,0
	c0.7,0.1,2.9,0.1,3.7,0.2V31h1.6v-2.7c2.4-0.1,4.4-0.3,6.8-0.5l0.1,0l2.1-1.9L66.3,26c-2.5,0.3-4.8,0.5-6.8,0.6c0,0-0.7,0-1.1,0.1
	v-7.5c3-0.1,5.9-0.5,8.8-1.2c0.8,1.9,2.3,6.7,2.3,6.7l1.5-0.5c0,0-1.5-4.7-2.3-6.6c2.5-0.8,4.8-1.8,7.1-3c1.8,2.2,3.4,4.7,4.7,7.2
	c-1.2,0.5-3.3,1.3-3.3,1.3c1.7,0.2,3,0.6,3,0.6s0.6-0.3,1-0.4c0.2,0.3,0.4,1,0.4,1l2.1,0.9l-0.2-0.6c0,0-0.7-1.7-0.9-2.1
	c2.2-1.1,4.4-2.4,6.6-3.8c4,6.1,6.1,13.3,6.1,20.6C95.3,51.6,89.5,62.4,80.4,69.3"/>
<path fill="#231F20" d="M14.7,10.5L14.1,11c-2.3,2-7.6,7.4-6.8,13.3c0,0,0.1,0.4,0.1,0.4c0,0,0.3,1.2,0.3,1.2l0.7-0.7
	c3.2-3,5.6-8,6.6-13.7l0.3-1.6L14.7,10.5z"/>
<path fill="#231F20" d="M4,20.7l-0.3,0.7c-0.4,1-1,3.1-1.4,5.8c-0.5,3.9-0.4,9.4,3,13.6c0,0,0.4,0.5,0.4,0.5l0.4,0.5l0.5-2.5
	c0.6-4.4-0.2-13.7-1.8-17.9L4.3,20L4,20.7z"/>
<path fill="#231F20" d="M0.1,36.6l0,0.7c-0.3,4-0.1,13.8,7.9,19c0,0,0.9,0.6,0.9,0.6l0-1.1C8.7,52.1,4.4,41,1.1,37l-0.9-1.1
	L0.1,36.6z"/>
<path fill="#231F20" d="M1.5,54.2l0.1,0.7c1.2,5.6,6.5,14.8,14.8,17.4l1.1,0.4l-0.4-1.1c-1.5-4.2-9.5-14-14.6-17.3l-1.2-0.7
	L1.5,54.2z"/>
<path fill="#231F20" d="M18.1,18.9l-0.7,0.4c-6.1,3.7-9,8.3-8.8,13.9l0.1,1.3l0.9-0.7C12.9,31,17,24,18.3,20l0.4-1.5L18.1,18.9z"/>
<path fill="#231F20" d="M14.4,31.2L14,31.7c-1.6,1.5-6.7,6.9-6.2,13.6c0.1,1,0.3,2.1,0.7,3.3l0.4,1.1l0.7-0.9
	c2.4-3.4,5.7-12.5,5.5-16.7l-0.1-1.3L14.4,31.2z"/>
<path fill="#231F20" d="M14.7,42.9l-0.3,0.5c-2.6,3.8-3.9,7.7-3.8,11.3c0.1,2.7,0.9,5.2,2.5,7.6l0.5,0.8l0.5-0.8
	c1.1-2.1,2-8.8,1.9-14.2c0-1.9-0.2-3.5-0.5-4.5l-0.3-1.2L14.7,42.9z"/>
<path fill="#231F20" d="M17.7,55.3l-0.2,0.5c-0.8,2.5-1.1,4.9-1.1,7.2c0.2,5.2,2.4,9.3,6.8,12.1l0.7,0.5l0.2-1c0,0,0.1-0.8,0.1-0.8
	c-0.1-4.2-3.3-14.9-5.7-18.1l-0.7-0.9L17.7,55.3z"/>
<path fill="#231F20" d="M9,71.8l0.3,0.5c3.3,5.5,8.9,12.7,19.4,10.9l0.9-0.1l-0.5-0.7c-2-2.9-14.7-10.1-19.2-10.8l-1.2-0.2L9,71.8z"
	/>
<path fill="#231F20" d="M24.6,85.9L24.6,85.9l-1.6,0.4l1.6,0.6c6.7,2.7,15,3.5,19.9,1.9c1.8-0.6,2.9-1.6,4.3-2.9
	c8.5,0.9,16.5,8,21.2,13.8c0,0,0.3,0.3,0.3,0.3l0.4-0.1c0.5-0.2,1.3-0.8,1.7-1.2l0.3-0.4L72.2,98c-4.9-6.4-12.5-10.3-12.8-10.5
	C52.5,84.2,40.4,81.6,24.6,85.9"/>
<path fill="#231F20" d="M24.9,68.1l0.1,0.6c1,6.3,3.6,14.5,14.2,13.6l0.7-0.1l-0.2-0.7C39,78.7,29.2,70.4,25.9,68.1l-1-0.5
	L24.9,68.1z"/>
<path fill="#231F20" d="M100,9.9l0.3,1.6c1,5.8,3.4,10.8,6.6,13.7l0.7,0.7c0,0,0.3-1.2,0.3-1.2c0,0,0.1-0.4,0.1-0.4
	c0.8-5.9-4.5-11.3-6.8-13.3l-0.6-0.5L100,9.9z"/>
<path fill="#231F20" d="M111.1,20l-0.6,1.4c-1.6,4.2-2.4,13.4-1.8,17.9l0.5,2.5l0.4-0.5c0,0,0.4-0.5,0.4-0.5c3.4-4.1,3.5-9.6,3-13.6
	c-0.4-2.8-1-4.8-1.4-5.8l-0.3-0.7L111.1,20z"/>
<path fill="#231F20" d="M115.2,35.9l-0.9,1.1c-3.3,4-7.6,15.1-7.7,18.8l0,1.1c0,0,0.9-0.6,0.9-0.6c7.9-5.2,8.1-15,7.9-19l-0.1-0.7
	L115.2,35.9z"/>
<path fill="#231F20" d="M114,53.5l-1.2,0.7c-5.1,3.2-13.1,13.1-14.6,17.3l-0.4,1.1l1.1-0.4c8.2-2.6,13.6-11.8,14.8-17.4l0.1-0.7
	L114,53.5z"/>
<path fill="#231F20" d="M97,18.4l0.4,1.5c1.1,4,5.2,11.1,8.4,13.9l0.9,0.8l0.1-1.3c0.3-5.6-2.5-10.2-8.5-14.1l-0.6-0.4L97,18.4z"/>
<path fill="#231F20" d="M100.4,30.8l0,1.3c-0.2,4.2,3,13.2,5.5,16.7l0.7,0.9l0.4-1.1c0.4-1.2,0.6-2.3,0.7-3.3
	c0.4-6.7-4.6-12.1-6.2-13.6l-0.5-0.4L100.4,30.8z"/>
<path fill="#231F20" d="M100.3,42.3l-0.3,1.2c-0.3,1.1-0.5,2.6-0.5,4.5c-0.1,5.4,0.7,12.1,1.9,14.2l0.5,0.8l0.5-0.8
	c1.6-2.4,2.5-4.9,2.5-7.6c0.1-3.6-1.2-7.5-3.8-11.3l-0.3-0.5L100.3,42.3z"/>
<path fill="#231F20" d="M97.5,54.7l-0.7,0.9c-2.5,3.3-5.6,13.9-5.7,18.1c0,0,0.1,0.8,0.1,0.8l0.2,1c0,0,0.7-0.5,0.7-0.5
	c4.4-2.8,6.7-6.9,6.8-12.1c0.1-2.3-0.3-4.7-1.1-7.2l-0.2-0.5L97.5,54.7z"/>
<path fill="#231F20" d="M106.6,71.2l-1.2,0.2c-4.5,0.7-17.2,7.9-19.2,10.8L85.7,83l0.9,0.1c10.5,1.8,16.1-5.3,19.4-10.9l0.3-0.5
	L106.6,71.2z"/>
<path fill="#231F20" d="M56,87.5c-0.3,0.2-8,4.1-12.8,10.5l-0.3,0.4l0.3,0.4c0.3,0.4,1.1,1,1.7,1.2l0.4,0.1c0,0,0.2-0.3,0.2-0.3
	c4.7-5.8,12.7-12.9,21.2-13.8c1.4,1.3,2.5,2.3,4.3,2.9c4.9,1.6,13.2,0.8,19.9-1.9l1.6-0.6l-1.6-0.4C74.9,81.6,62.8,84.2,56,87.5"/>
<path fill="#231F20" d="M90.5,67.5l-1,0.5c-3.4,2.3-13.1,10.6-13.9,13.5l-0.2,0.7l0.7,0.1c10.6,0.9,13.2-7.3,14.2-13.6l0.1-0.6
	L90.5,67.5z"/>
</svg>
